<svg xmlns="http://www.w3.org/2000/svg" width="1280" height="420" viewBox="0 0 1280 420" role="img" aria-labelledby="title desc"><title id="title">Cripto Auto Trade overview</title><desc id="desc">Hero image showing selectable crypto trading bot dashboard, strategy engine, validation, paper and live trading.</desc><defs><linearGradient id="bg" x1="0" x2="1" y1="0" y2="1"><stop offset="0" stop-color="#06111f"/><stop offset="0.55" stop-color="#0a2b3f"/><stop offset="1" stop-color="#07111f"/></linearGradient><linearGradient id="g" x1="0" x2="1"><stop offset="0" stop-color="#56f39a"/><stop offset="1" stop-color="#58c7ff"/></linearGradient></defs><rect width="1280" height="420" rx="32" fill="url(#bg)"/><circle cx="1070" cy="72" r="42" fill="#f7931a"/><text x="1055" y="88" font-size="46" fill="#fff" font-family="Arial" font-weight="700">₿</text><path d="M730 255 C780 180 830 225 880 145 S990 90 1050 170 S1140 250 1220 120" fill="none" stroke="url(#g)" stroke-width="7"/><path d="M730 305 C790 260 850 310 900 235 S1020 205 1080 260 S1160 330 1230 240" fill="none" stroke="#ff6b6b" stroke-width="4" opacity=".75"/><g font-family="Arial, sans-serif"><text x="60" y="95" fill="#9ee7ff" font-size="24" font-weight="700">Selectable Strategy Crypto Bot</text><text x="60" y="160" fill="#fff" font-size="66" font-weight="800">Cripto Auto Trade</text><text x="64" y="205" fill="#d8f6ff" font-size="24">戦略選択・バックテスト・フォワードテスト・リアルタイム検証・紙取引・実売買</text><g transform="translate(60 250)"><rect width="170" height="40" rx="20" fill="#113d2f" stroke="#56f39a"/><text x="22" y="27" fill="#fff" font-size="16">Strategy UI</text></g><g transform="translate(245 250)"><rect width="170" height="40" rx="20" fill="#122f47" stroke="#58c7ff"/><text x="22" y="27" fill="#fff" font-size="16">Backtest</text></g><g transform="translate(430 250)"><rect width="190" height="40" rx="20" fill="#33283e" stroke="#c792ff"/><text x="22" y="27" fill="#fff" font-size="16">Forward Test</text></g><g transform="translate(60 310)"><text fill="#9eb8c7" font-size="18">本番前に「有効性」を常にチェックできるシンプルな画面設計</text></g></g></svg>
