<svg xmlns="http://www.w3.org/2000/svg" width="1280" height="520" viewBox="0 0 1280 520"><defs><linearGradient id="bg" x1="0" x2="1"><stop offset="0" stop-color="#07111f"/><stop offset="1" stop-color="#102a3a"/></linearGradient></defs><rect width="1280" height="520" rx="30" fill="url(#bg)"/><text x="54" y="72" fill="#fff" font-family="Arial" font-size="42" font-weight="800">初期導入は7ステップ</text><g font-family="Arial" font-size="18"><rect x="60" y="145" width="150" height="110" rx="18" fill="#102a3a" stroke="#58c7ff"/><text x="84" y="185" fill="#fff" font-weight="700">1 Clone</text><text x="84" y="217" fill="#9eb8c7">repo取得</text><rect x="240" y="145" width="150" height="110" rx="18" fill="#102a3a" stroke="#58c7ff"/><text x="264" y="185" fill="#fff" font-weight="700">2 Venv</text><text x="264" y="217" fill="#9eb8c7">仮想環境</text><rect x="420" y="145" width="150" height="110" rx="18" fill="#102a3a" stroke="#58c7ff"/><text x="444" y="185" fill="#fff" font-weight="700">3 Install</text><text x="444" y="217" fill="#9eb8c7">依存関係</text><rect x="600" y="145" width="150" height="110" rx="18" fill="#102a3a" stroke="#56f39a"/><text x="624" y="185" fill="#fff" font-weight="700">4 Test</text><text x="624" y="217" fill="#9eb8c7">pytest</text><rect x="780" y="145" width="150" height="110" rx="18" fill="#102a3a" stroke="#56f39a"/><text x="804" y="185" fill="#fff" font-weight="700">5 UI</text><text x="804" y="217" fill="#9eb8c7">dashboard</text><rect x="960" y="145" width="150" height="110" rx="18" fill="#102a3a" stroke="#ffd166"/><text x="984" y="185" fill="#fff" font-weight="700">6 Paper</text><text x="984" y="217" fill="#9eb8c7">紙取引</text><rect x="1110" y="330" width="120" height="80" rx="18" fill="#3a1b20" stroke="#ff6b6b"/><text x="1130" y="364" fill="#fff" font-weight="700">7 Live</text><text x="1130" y="390" fill="#ffd7d7">小額</text></g><rect x="70" y="330" width="900" height="105" rx="18" fill="#081927" stroke="#244d63"/><text x="100" y="370" fill="#9ee7ff" font-family="Arial" font-size="20">python -m cripto_auto_trade.web</text><text x="100" y="405" fill="#fff" font-family="Arial" font-size="22" font-weight="700">ブラウザで http://127.0.0.1:8000 を開くだけ</text></svg>
