<svg xmlns="http://www.w3.org/2000/svg" width="1280" height="520" viewBox="0 0 1280 520"><defs><linearGradient id="bg" x1="0" x2="1"><stop offset="0" stop-color="#07111f"/><stop offset="1" stop-color="#102a3a"/></linearGradient><marker id="arrow" markerWidth="10" markerHeight="10" refX="8" refY="3" orient="auto"><path d="M0,0 L0,6 L9,3 z" fill="#58c7ff"/></marker></defs><rect width="1280" height="520" rx="30" fill="url(#bg)"/><text x="54" y="72" fill="#fff" font-family="Arial" font-size="42" font-weight="800">初期導入は7ステップ</text><g font-family="Arial" font-size="18"><g transform="translate(60 145)"><rect width="150" height="110" rx="18" fill="#102a3a" stroke="#58c7ff"/><text x="24" y="40" fill="#fff" font-weight="700">1 Clone</text><text x="24" y="72" fill="#9eb8c7">repo取得</text></g><g transform="translate(240 145)"><rect width="150" height="110" rx="18" fill="#102a3a" stroke="#58c7ff"/><text x="24" y="40" fill="#fff" font-weight="700">2 Venv</text><text x="24" y="72" fill="#9eb8c7">仮想環境</text></g><g transform="translate(420 145)"><rect width="150" height="110" rx="18" fill="#102a3a" stroke="#58c7ff"/><text x="24" y="40" fill="#fff" font-weight="700">3 Install</text><text x="24" y="72" fill="#9eb8c7">依存関係</text></g><g transform="translate(600 145)"><rect width="150" height="110" rx="18" fill="#102a3a" stroke="#56f39a"/><text x="24" y="40" fill="#fff" font-weight="700">4 Test</text><text x="24" y="72" fill="#9eb8c7">pytest</text></g><g transform="translate(780 145)"><rect width="150" height="110" rx="18" fill="#102a3a" stroke="#56f39a"/><text x="24" y="40" fill="#fff" font-weight="700">5 UI</text><text x="24" y="72" fill="#9eb8c7">dashboard</text></g><g transform="translate(960 145)"><rect width="150" height="110" rx="18" fill="#102a3a" stroke="#ffd166"/><text x="24" y="40" fill="#fff" font-weight="700">6 Paper</text><text x="24" y="72" fill="#9eb8c7">紙取引</text></g><g transform="translate(1110 330)"><rect width="120" height="80" rx="18" fill="#3a1b20" stroke="#ff6b6b"/><text x="20" y="34" fill="#fff" font-weight="700">7 Live</text><text x="20" y="60" fill="#ffd7d7">小額</text></g></g><g stroke="#58c7ff" stroke-width="4" fill="none" marker-end="url(#arrow)"><path d="M210 200 L240 200"/><path d="M390 200 L420 200"/><path d="M570 200 L600 200"/><path d="M750 200 L780 200"/><path d="M930 200 L960 200"/><path d="M1110 255 C1160 280 1170 305 1170 330"/></g><rect x="70" y="330" width="900" height="105" rx="18" fill="#081927" stroke="#244d63"/><text x="100" y="370" fill="#9ee7ff" font-family="Arial" font-size="20">python -m cripto_auto_trade.web</text><text x="100" y="405" fill="#fff" font-family="Arial" font-size="22" font-weight="700">ブラウザで http://127.0.0.1:8000 を開くだけ</text></svg>
