<svg xmlns="http://www.w3.org/2000/svg" width="1280" height="520" viewBox="0 0 1280 520"><defs><linearGradient id="bg" x1="0" x2="1"><stop offset="0" stop-color="#07111f"/><stop offset="1" stop-color="#0d2f42"/></linearGradient><marker id="a" markerWidth="10" markerHeight="10" refX="8" refY="3" orient="auto"><path d="M0,0 L0,6 L9,3 z" fill="#9ee7ff"/></marker></defs><rect width="1280" height="520" rx="30" fill="url(#bg)"/><text x="48" y="66" fill="#fff" font-family="Arial" font-size="42" font-weight="800">トレード戦略はユーザーが選択</text><text x="50" y="105" fill="#9eb8c7" font-family="Arial" font-size="20">各戦略を同じ基準でバックテスト・フォワードテスト・リアルタイム検証</text><g font-family="Arial" font-size="18"><g transform="translate(50 160)"><rect width="210" height="96" rx="18" fill="#102a3a" stroke="#56f39a"/><text x="22" y="38" fill="#fff" font-weight="700">Regime Guard</text><text x="22" y="66" fill="#9eb8c7">相場判定 + 防御</text></g><g transform="translate(290 160)"><rect width="210" height="96" rx="18" fill="#102a3a" stroke="#58c7ff"/><text x="22" y="38" fill="#fff" font-weight="700">EMA Cross</text><text x="22" y="66" fill="#9eb8c7">トレンド追随</text></g><g transform="translate(530 160)"><rect width="210" height="96" rx="18" fill="#102a3a" stroke="#ffd166"/><text x="22" y="38" fill="#fff" font-weight="700">Donchian</text><text x="22" y="66" fill="#9eb8c7">高値ブレイク</text></g><g transform="translate(770 160)"><rect width="210" height="96" rx="18" fill="#102a3a" stroke="#c792ff"/><text x="22" y="38" fill="#fff" font-weight="700">RSI Reversion</text><text x="22" y="66" fill="#9eb8c7">レンジ反発</text></g><g transform="translate(1010 160)"><rect width="210" height="96" rx="18" fill="#102a3a" stroke="#ff6b6b"/><text x="22" y="38" fill="#fff" font-weight="700">Bollinger</text><text x="22" y="66" fill="#9eb8c7">ボラ拡大</text></g></g><path d="M640 280 L640 335" stroke="#9ee7ff" stroke-width="4" marker-end="url(#a)"/><g font-family="Arial"><rect x="170" y="350" width="940" height="110" rx="22" fill="#081927" stroke="#244d63"/><text x="220" y="390" fill="#fff" font-size="26" font-weight="800">検証ループ</text><text x="220" y="426" fill="#9eb8c7" font-size="20">Backtest → Forward Test → Realtime Validate → Paper → Guarded Live</text><text x="760" y="426" fill="#56f39a" font-size="20" font-weight="700">200+ validation loops ready</text></g></svg>
